<svg width="16" height="18" viewBox="0 0 16 18" fill="none" xmlns="http://www.w3.org/2000/svg">
<path id="Vector" d="M4.90667 7.68642C4.75 7.52975 4.49667 7.52975 4.34 7.68309L3.58333 8.43309C3.42667 8.58976 3.42667 8.84309 3.58 8.99976L6.60667 12.0498C6.76333 12.2064 7.01667 12.2064 7.17333 12.0531L12.9267 6.34642C13.0833 6.18975 13.0833 5.93642 12.93 5.77975L12.18 5.02308C12.0233 4.86642 11.77 4.86642 11.6133 5.01975L6.9 9.69309L4.90667 7.68642ZM15.0167 2.79308L8.61667 0.126409C8.42172 0.0455348 8.21273 0.00390625 8.00167 0.00390625C7.79061 0.00390625 7.58162 0.0455348 7.38667 0.126409L0.986667 2.79308C0.39 3.03975 0 3.62308 0 4.26975C0 10.8864 3.81667 15.4598 7.38333 16.9464C7.77667 17.1098 8.22 17.1098 8.61333 16.9464C11.47 15.7564 16 11.6464 16 4.26975C16 3.62308 15.61 3.03975 15.0167 2.79308ZM8 15.4698C4.75 14.1164 1.6 9.91309 1.6 4.26975L8 1.60308L14.4 4.26975C14.4 10.0631 11.12 14.1698 8 15.4698Z" fill="white"/>
</svg>
