<svg width="16" height="15" viewBox="0 0 16 15" fill="none" xmlns="http://www.w3.org/2000/svg">
<path id="Vector" d="M6.90964 5.75519L7.09264 8.8663C7.103 9.0425 7.24892 9.18005 7.42539 9.18005H8.57456C8.65957 9.18005 8.74137 9.14756 8.80323 9.08924C8.86508 9.03092 8.90232 8.95117 8.90731 8.8663L9.09031 5.75519C9.10156 5.56372 8.94934 5.40227 8.75756 5.40227H7.24237C7.05062 5.40227 6.89839 5.56372 6.90964 5.75519ZM9.16667 10.7356C9.16667 11.3799 8.64434 11.9023 8 11.9023C7.35567 11.9023 6.83334 11.3799 6.83334 10.7356C6.83334 10.0913 7.35567 9.56894 8 9.56894C8.64434 9.56894 9.16667 10.0913 9.16667 10.7356ZM9.15492 0.735189C8.64289 -0.152338 7.35806 -0.15395 6.84509 0.735189L0.179921 12.2915C-0.331801 13.1786 0.308838 14.2912 1.33484 14.2912H14.665C15.689 14.2912 16.3326 13.1802 15.8199 12.2915L9.15492 0.735189ZM1.47753 12.7079L7.85564 1.6525C7.91978 1.54133 8.08023 1.54133 8.14437 1.6525L14.5225 12.7079C14.5866 12.819 14.5064 12.9578 14.3781 12.9578H1.62189C1.49364 12.9578 1.41345 12.819 1.47753 12.7079Z" fill="white"/>
</svg>
