<svg width="15" height="21" viewBox="0 0 15 21" fill="none" xmlns="http://www.w3.org/2000/svg">
<path id="Vector" d="M8.69961 9.75253C8.69961 9.5039 8.49823 9.30253 8.24961 9.30253H7.34961C7.10099 9.30253 6.89961 9.5039 6.89961 9.75253V12.9029H5.06661C4.66498 12.9029 4.46473 13.3893 4.74973 13.6724L7.46136 16.3638C7.64848 16.5494 7.95036 16.5494 8.13748 16.3638L10.8491 13.6724C11.1341 13.3897 10.9339 12.9029 10.5322 12.9029H8.69961V9.75253ZM14.4682 4.57415L11.3224 1.42865C10.9849 1.09115 10.5274 0.899902 10.0515 0.899902H2.39923C1.40586 0.903652 0.599609 1.7099 0.599609 2.70328V18.3003C0.599609 19.2937 1.40586 20.0999 2.39923 20.0999H13.197C14.1907 20.0999 14.9996 19.2937 14.9996 18.3003V5.84878C14.9996 5.3729 14.8057 4.91165 14.4682 4.57415ZM10.1977 2.84953L13.0511 5.70253H10.1977V2.84953ZM13.1996 18.3003H2.39923V2.70328H8.39811V6.60253C8.39811 7.10128 8.79936 7.50215 9.29811 7.50215H13.1996V18.3003Z" fill="#26323D"/>
</svg>
