<svg width="20" height="20" viewBox="0 0 20 20" fill="none" xmlns="http://www.w3.org/2000/svg">
<path id="Vector" d="M19.0687 17.9833L14.5162 13.4308C14.43 13.3445 14.3175 13.2995 14.1975 13.2995H13.7025C14.8837 11.9308 15.6 10.1495 15.6 8.19954C15.6 3.89079 12.1087 0.399536 7.8 0.399536C3.49125 0.399536 0 3.89079 0 8.19954C0 12.5083 3.49125 15.9995 7.8 15.9995C9.75 15.9995 11.5312 15.2833 12.9 14.102V14.597C12.9 14.717 12.9487 14.8295 13.0312 14.9158L17.5837 19.4683C17.76 19.6445 18.045 19.6445 18.2212 19.4683L19.0687 18.6208C19.245 18.4445 19.245 18.1595 19.0687 17.9833ZM7.8 14.1995C4.485 14.1995 1.8 11.5145 1.8 8.19954C1.8 4.88454 4.485 2.19954 7.8 2.19954C11.115 2.19954 13.8 4.88454 13.8 8.19954C13.8 11.5145 11.115 14.1995 7.8 14.1995Z" fill="#828282"/>
</svg>
